PathFileType	4	(X/Y/Z)	s09c0302.trc
DataRate	CameraRate	NumFrames	NumMarkers	Units	OrigDataRate	OrigDataStartFrame	OrigNumFrames
200	200	6	50	mm	200	250	2000
Frame#	Time	racr			lacr			c7			jug			rlel			rdr			llel			ldr			s2			lic			ric			lasi			rasi			rpsi			lpsi			rgt			lgt			rth1			rth2			rth3			rth4			rlfc			rmfc			rsh1			rsh2			rsh3			rsh4			rlmal			rmmal			rcal			rtoe			rmt5			lth1			lth2			lth4			lth3			llfc			lmfc			llmal			lmmal			lcal			lmt5			lsh1			lsh2			lsh3			lsh4			ltoe			SBIKE			LBIKE			RBIKE			
		X1	Y1	Z1	X2	Y2	Z2	X3	Y3	Z3	X4	Y4	Z4	X5	Y5	Z5	X6	Y6	Z6	X7	Y7	Z7	X8	Y8	Z8	X9	Y9	Z9	X10	Y10	Z10	X11	Y11	Z11	X12	Y12	Z12	X13	Y13	Z13	X14	Y14	Z14	X15	Y15	Z15	X16	Y16	Z16	X17	Y17	Z17	X18	Y18	Z18	X19	Y19	Z19	X20	Y20	Z20	X21	Y21	Z21	X22	Y22	Z22	X23	Y23	Z23	X24	Y24	Z24	X25	Y25	Z25	X26	Y26	Z26	X27	Y27	Z27	X28	Y28	Z28	X29	Y29	Z29	X30	Y30	Z30	X31	Y31	Z31	X32	Y32	Z32	X33	Y33	Z33	X34	Y34	Z34	X35	Y35	Z35	X36	Y36	Z36	X37	Y37	Z37	X38	Y38	Z38	X39	Y39	Z39	X40	Y40	Z40	X41	Y41	Z41	X42	Y42	Z42	X43	Y43	Z43	X44	Y44	Z44	X45	Y45	Z45	X46	Y46	Z46	X47	Y47	Z47	X48	Y48	Z48	X49	Y49	Z49	X50	Y50	Z50	
250	1.2500	467.100525	1271.739760	-94.869579	466.259243	1265.518893	-400.624093	413.599662	1300.658356	-247.204746	424.729621	1165.369165	-246.755851	504.924188	1032.824959	-0.247383	701.665547	877.635904	-52.736901	471.168379	998.544455	-494.024869	690.967215	875.789252	-440.275147	-66.806272	1148.066371	-232.489147	71.656834	1128.712462	-378.273300	83.311831	1125.231829	-89.302024	101.016355	1064.059886	-358.911988	115.851462	1063.347835	-106.937064	-26.376917	1169.520089	-177.235943	-32.498098	1181.170213	-283.202673	37.625774	987.255683	-39.762604	26.055796	1014.247861	-429.397073	123.276226	875.177437	-42.796073	194.185941	824.219915	-47.886647	226.074989	741.815777	-57.700306	219.940226	843.693454	-65.526273	271.008331	655.764666	-89.427427	256.102245	642.347849	-186.161174	198.837673	580.380888	-61.341277	169.148132	496.744173	-76.809740	102.405616	439.576061	-77.858935	190.897830	486.183421	-108.422826	43.062708	357.898780	-80.631292	46.702817	370.601182	-159.832031	-44.877049	337.037513	-121.487347	214.233047	280.207259	-125.407984	131.246775	279.444065	-60.411331	141.988697	937.838714	-430.888126	225.118927	920.730308	-424.648070	242.316307	952.731103	-413.590560	292.312541	860.313655	-419.970667	367.762997	799.480043	-404.498047	388.489571	791.500558	-306.485726	335.360250	436.514643	-410.706625	349.575567	448.697244	-339.117727	270.292473	389.296336	-374.106265	443.820022	370.142641	-434.635356	356.196672	700.429568	-426.536559	372.412984	615.365640	-418.447918	342.570291	531.732036	-416.240883	398.169630	615.967318	-387.962238	532.327152	401.284284	-366.132314	-65.463891	851.184521	-241.320280	21.118349	83.760196	-442.329256	21.124780	83.998645	-44.011008	
251	1.2550	467.075251	1271.767498	-94.908336	466.219628	1265.638527	-400.571644	413.503634	1300.739363	-247.174213	424.688137	1165.427799	-246.739464	505.014360	1032.922156	-0.235673	701.683510	877.645416	-52.765683	471.277007	998.777117	-494.051519	690.989088	875.797163	-440.309667	-66.888892	1148.011264	-232.510932	71.536037	1128.682647	-378.235218	83.178852	1125.204784	-89.279597	100.978402	1064.089076	-358.905828	115.750052	1063.333128	-106.961270	-26.459743	1169.476408	-177.227482	-32.582492	1181.131263	-283.206660	37.585841	987.223337	-39.761361	26.031392	1014.196033	-429.401052	123.246354	875.153618	-42.802160	194.179875	824.205364	-47.896987	226.081903	741.798555	-57.704139	219.929998	843.674736	-65.518299	271.012543	655.748183	-89.428757	256.131863	642.338197	-186.139647	198.868420	580.356717	-61.366871	169.170937	496.719630	-76.799922	102.407369	439.576370	-77.857401	190.919095	486.165222	-108.414566	43.091376	357.833820	-80.626355	46.721915	370.609905	-159.846719	-44.867079	337.031718	-121.473128	214.232728	280.183420	-125.409895	131.252995	279.435937	-60.403060	141.962298	937.796179	-430.885537	225.095699	920.687604	-424.664796	242.294484	952.678809	-413.609887	292.303264	860.260860	-419.970483	367.737824	799.441881	-404.504165	388.476427	791.479403	-306.501003	335.329393	436.488900	-410.700753	346.370253	447.591956	-337.113238	270.277789	389.237336	-374.097830	443.794546	370.134166	-434.644171	356.172073	700.379588	-426.533310	372.392557	615.320148	-418.431494	342.537435	531.683166	-416.257905	398.146873	615.919006	-387.976020	532.310913	401.320458	-366.127957	-65.451601	851.189436	-241.307390	21.120758	83.775948	-442.320839	21.141375	83.966292	-44.009561	
252	1.2600	467.047114	1271.849297	-95.003562	466.161877	1265.776015	-400.506464	413.416067	1300.797277	-247.202547	424.650666	1165.465989	-246.746844	505.110181	1033.030690	-0.230087	701.716600	877.658869	-52.780332	471.401600	998.919800	-494.083586	690.992057	875.823686	-440.371040	-66.978837	1147.965130	-232.507475	71.451503	1128.695345	-378.234296	83.030982	1125.159062	-89.307352	100.934115	1064.103750	-358.895302	115.604854	1063.332170	-107.003628	-26.544688	1169.438650	-177.243192	-32.650206	1181.095466	-283.219129	37.533962	987.174952	-39.780289	26.020463	1014.148116	-429.402865	123.217001	875.117407	-42.834310	194.133855	824.200787	-47.896800	226.064910	741.787676	-57.735343	219.908022	843.668894	-65.536289	271.005170	655.757538	-89.447103	256.129186	642.334992	-186.152596	198.870943	580.370921	-61.374038	169.186496	496.722583	-76.815362	102.414018	439.559661	-77.851153	190.916245	486.171741	-108.419322	43.092663	357.893630	-80.640629	46.694734	370.621704	-159.838861	-44.856965	337.064076	-121.481913	214.226241	280.176964	-125.429430	131.270127	279.427467	-60.397333	141.956978	937.726818	-430.870448	225.080133	920.640921	-424.661121	242.281464	952.628656	-413.627962	292.279821	860.203814	-419.961326	367.725615	799.396538	-404.501713	388.445184	791.450569	-306.511420	335.307623	436.487179	-410.730884	349.522506	448.651343	-339.131382	270.255034	389.208393	-374.115505	443.784161	370.127518	-434.630032	356.151209	700.351963	-426.548576	372.369224	615.300265	-418.450747	342.512129	531.650783	-416.247009	398.123929	615.894269	-387.983147	532.286512	401.346351	-366.147231	-65.458454	851.184260	-241.327264	21.119149	83.785890	-442.326876	21.129631	83.970243	-44.035182	
253	1.2650	466.964956	1271.933556	-95.091474	466.111750	1265.914866	-400.432798	413.311180	1300.878204	-247.204810	424.610835	1165.507757	-246.738625	505.228366	1033.161956	-0.263778	701.731609	877.670546	-52.772519	471.525729	999.097846	-494.106218	691.004216	875.832608	-440.391806	-67.075632	1147.924548	-232.529853	71.387772	1128.692611	-378.254289	82.831524	1125.167656	-89.337476	100.902638	1064.111857	-358.874620	115.492065	1063.318338	-107.069387	-26.644526	1169.402481	-177.258213	-32.739783	1181.050755	-283.282615	37.497388	987.139655	-39.787592	25.988829	1014.099759	-429.384548	123.148748	875.075513	-42.869076	194.095401	824.167351	-47.942107	226.034510	741.770547	-57.776462	219.855438	843.657618	-65.580073	270.995430	655.742730	-89.487356	256.116744	642.329892	-186.166370	198.848320	580.349293	-61.407706	169.190798	496.718714	-76.837574	102.416843	439.548670	-77.878285	190.931262	486.165720	-108.423227	43.075219	357.844849	-80.659046	46.645920	370.635873	-159.835402	-44.880496	337.058551	-121.520260	214.211271	280.181180	-125.452788	131.253436	279.425966	-60.399400	141.922213	937.664399	-430.862323	225.057173	920.600008	-424.668971	242.259083	952.590192	-413.632735	292.275063	860.163093	-419.965960	367.701265	799.362412	-404.505033	388.433866	791.408868	-306.517247	335.285660	436.488087	-410.746525	349.502786	448.662322	-339.122052	270.254543	389.194733	-374.110436	443.789968	370.128704	-434.644069	356.137947	700.328474	-426.569768	372.341261	615.251533	-418.436120	342.517989	531.618554	-416.248147	398.119608	615.886407	-388.003760	532.283114	401.336784	-366.178521	-65.473806	851.190006	-241.348956	21.124137	83.827689	-442.384165	21.115957	83.974548	-44.043590	
254	1.2700	466.907584	1272.001443	-95.235392	466.074159	1266.065829	-400.348046	413.200718	1300.964708	-247.222837	424.573207	1165.531439	-246.738539	505.312875	1033.296698	-0.273130	701.755235	877.668878	-52.780599	471.677885	999.294520	-494.148622	691.027310	875.853820	-440.428220	-67.162222	1147.874031	-232.521790	71.374196	1128.695712	-378.283938	82.700291	1125.133757	-89.372566	100.858050	1064.150101	-358.859819	115.354008	1063.321043	-107.111481	-26.728130	1169.358029	-177.265559	-32.847162	1181.024523	-283.277401	37.450681	987.095632	-39.794630	25.969627	1014.020473	-429.385192	123.099371	875.059558	-42.904370	194.031587	824.158941	-47.987118	226.005724	741.757525	-57.810400	219.826101	843.638677	-65.613481	270.979282	655.753191	-89.527851	256.121854	642.333380	-186.187921	198.834169	580.344867	-61.445863	169.205201	496.718812	-76.834956	102.393741	439.548249	-77.913341	190.916883	486.167543	-108.439003	43.058070	357.836469	-80.691599	46.602340	370.687879	-159.846100	-44.905796	337.080742	-121.530683	214.193349	280.182131	-125.463185	131.251696	279.449772	-60.398734	141.904547	937.624594	-430.866724	225.035437	920.565312	-424.680406	242.221242	952.566997	-413.658429	292.259613	860.123084	-419.953452	367.711325	799.340783	-404.489104	388.416905	791.389739	-306.527312	335.299436	436.511508	-410.765616	349.555837	448.653215	-339.139605	270.279505	389.212957	-374.108573	443.798514	370.121040	-434.645601	356.124277	700.303812	-426.571242	372.351456	615.247802	-418.439431	342.537513	531.594899	-416.237121	398.119388	615.880876	-387.994134	532.277390	401.330202	-366.199413	-65.485791	851.173554	-241.362702	21.125047	83.826472	-442.385596	21.101055	83.961202	-44.056911	
255	1.2750	466.839354	1272.101891	-95.342316	466.021129	1266.196887	-400.266428	413.104302	1301.042149	-247.253438	424.534999	1165.556342	-246.738471	505.439646	1033.444769	-0.323637	701.786359	877.691233	-52.774190	471.815537	999.455586	-494.175903	691.043491	875.879491	-440.438526	-67.261249	1147.802581	-232.537655	71.242847	1128.690218	-378.234418	82.529205	1125.148543	-89.366112	100.821769	1064.172998	-358.831211	115.235152	1063.338954	-107.125349	-26.823658	1169.320272	-177.281184	-32.917431	1180.986740	-283.303539	37.382950	987.079099	-39.791512	25.946979	1013.945908	-429.352066	123.057412	875.011492	-42.967494	194.022077	824.147001	-48.027867	225.970499	741.740713	-57.846644	219.801308	843.625243	-65.640828	270.963003	655.763378	-89.555184	256.113723	642.347109	-186.214540	198.814193	580.352019	-61.466203	169.189048	496.702979	-76.845410	102.344844	439.570408	-77.937001	190.898336	486.161808	-108.450674	43.052491	357.840584	-80.718369	46.574650	370.721937	-159.871225	-44.925228	337.098094	-121.548354	214.181822	280.198307	-125.500219	131.256291	279.443991	-60.378831	141.894720	937.574483	-430.842163	225.030078	920.527361	-424.675342	242.196518	952.513980	-413.674398	292.260716	860.089920	-419.912141	367.686066	799.340443	-404.503371	388.396508	791.401987	-306.510723	335.327583	436.540065	-410.781293	349.579106	448.679307	-339.115056	270.283751	389.256426	-374.116091	443.825572	370.104879	-434.627661	356.117337	700.292200	-426.552755	372.371898	615.252763	-418.432564	342.554429	531.589007	-416.250432	398.128177	615.867876	-387.994035	532.306511	401.310155	-366.210759	-65.466148	851.177442	-241.345288	21.117268	83.859798	-442.407380	21.083236	83.969966	-44.073614	
